<?xml version="1.0" standalone="no"?>
<!DOCTYPE svg PUBLIC "-//W3C//DTD SVG 20010904//EN"
 "http://www.w3.org/TR/2001/REC-SVG-20010904/DTD/svg10.dtd">
<svg version="1.0" xmlns="http://www.w3.org/2000/svg"
 width="1294.000000pt" height="1294.000000pt" viewBox="0 0 1294.000000 1294.000000"
 preserveAspectRatio="xMidYMid meet">
<metadata>
Created by potrace 1.11, written by Peter Selinger 2001-2013
</metadata>
<g transform="translate(0.000000,1294.000000) scale(0.100000,-0.100000)"
fill="#000000" stroke="none">
<path d="M8888 12385 c-2 -2 -50 -6 -108 -10 -58 -3 -118 -7 -135 -9 -160 -17
-323 -41 -452 -67 -29 -6 -54 -10 -55 -10 -2 0 -55 -13 -118 -30 -63 -16 -125
-32 -137 -34 -43 -10 -231 -75 -332 -115 -86 -34 -227 -101 -368 -174 l-31
-16 13 -48 c7 -26 27 -92 43 -147 80 -264 93 -310 152 -540 38 -148 81 -350
95 -450 3 -22 8 -51 10 -65 3 -14 7 -47 11 -75 3 -27 7 -61 9 -75 20 -133 27
-548 12 -684 -13 -120 -56 -296 -96 -400 -6 -16 -10 -31 -8 -33 8 -7 260 86
377 139 165 76 259 128 405 223 492 322 900 842 1174 1495 29 69 56 134 61
145 22 51 126 355 135 395 2 8 14 56 28 105 43 155 103 442 95 451 -2 1 -43 5
-93 9 -49 4 -99 9 -110 12 -21 5 -572 12 -577 8z"/>
<path d="M8379 9526 c-2 -2 -35 -6 -74 -10 -38 -3 -81 -8 -95 -10 -14 -3 -52
-9 -85 -15 -98 -17 -107 -19 -175 -36 -36 -9 -74 -18 -86 -20 -12 -3 -57 -17
-100 -31 -43 -14 -83 -27 -89 -28 -5 -1 -14 -4 -20 -7 -5 -4 -28 -12 -50 -19
-44 -14 -230 -92 -275 -115 -17 -9 -45 -45 -75 -97 -27 -46 -77 -127 -112
-180 l-64 -96 19 -34 c19 -33 61 -146 68 -183 2 -11 6 -31 9 -45 3 -14 8 -45
11 -70 3 -24 7 -46 9 -48 21 -22 462 -19 565 3 14 3 39 7 55 9 109 16 335 77
363 99 6 5 12 7 12 4 0 -3 -37 -34 -82 -70 -81 -63 -112 -78 -193 -93 -22 -4
-42 -8 -45 -9 -11 -2 -128 -26 -147 -29 -29 -5 -21 -14 9 -11 18 2 78 6 133
10 55 3 118 8 140 11 66 9 288 54 320 65 16 5 25 6 20 1 -12 -11 -156 -61
-295 -101 -58 -17 -118 -35 -135 -41 -24 -7 -157 -40 -225 -55 -8 -2 -26 -6
-40 -9 -14 -3 -38 -8 -55 -11 -16 -3 -68 -12 -115 -20 -47 -9 -105 -18 -130
-20 -25 -3 -62 -8 -83 -11 -21 -3 -59 -7 -85 -9 -82 -7 -167 -17 -171 -21 -9
-9 128 -252 197 -349 83 -117 209 -280 327 -424 69 -85 129 -159 133 -166 11
-19 239 -55 437 -71 83 -6 341 -6 385 0 14 2 64 7 110 11 47 4 88 9 91 11 4 2
28 6 55 9 27 3 57 8 66 11 9 3 25 6 35 8 10 2 56 14 103 26 47 12 92 23 101
25 82 17 350 121 527 206 300 144 694 403 918 604 6 6 42 37 80 70 90 77 372
359 409 408 16 22 24 41 19 46 -74 65 -357 257 -531 360 -129 75 -393 210
-503 256 -36 15 -73 31 -83 36 -20 11 -147 60 -162 63 -5 1 -44 14 -85 28
-141 50 -370 113 -485 133 -65 12 -192 31 -265 41 -51 7 -505 16 -511 10z"/>
<path d="M7796 7018 c35 -99 -49 -215 -197 -274 -61 -24 -200 -56 -299 -69
-25 -3 -56 -8 -70 -10 -14 -3 -36 -7 -50 -10 -110 -20 -198 -69 -202 -113 -13
-161 16 -237 137 -351 95 -90 111 -130 79 -198 -21 -42 -130 -152 -246 -246
l-87 -70 48 -53 c74 -80 104 -146 105 -224 1 -58 -3 -70 -31 -112 -18 -25 -38
-48 -45 -50 -16 -6 144 -129 305 -235 393 -260 807 -409 1277 -460 97 -10 539
-10 655 0 75 7 265 33 380 53 94 16 325 72 450 108 294 86 764 273 765 304 0
7 -34 70 -76 140 -388 646 -924 1197 -1471 1513 -103 60 -326 169 -345 169 -8
0 -18 4 -23 9 -15 14 -235 86 -350 115 -114 28 -242 52 -330 62 -33 3 -69 8
-80 10 -10 2 -84 6 -163 10 l-144 6 8 -24z"/>
<path d="M6765 5170 c-16 -4 -73 -18 -125 -30 -119 -28 -185 -58 -249 -116
-60 -54 -92 -107 -125 -205 -28 -84 -25 -71 -62 -354 -3 -22 -7 -47 -9 -55 -2
-8 -7 -29 -10 -46 -9 -57 -46 -168 -76 -233 -58 -123 -136 -204 -254 -262 -44
-22 -91 -42 -105 -44 -103 -22 -138 -26 -235 -27 -60 0 -125 2 -142 6 -40 9
-41 7 -7 -92 109 -320 273 -613 492 -882 78 -96 344 -352 452 -436 462 -358
1065 -643 1665 -788 39 -10 86 -22 106 -27 68 -17 71 -14 85 96 7 57 15 130
19 165 26 229 26 757 0 955 -2 17 -7 57 -10 90 -6 62 -9 82 -25 175 -5 30 -12
73 -15 95 -12 83 -86 366 -128 490 -120 354 -286 656 -506 919 -95 113 -268
286 -369 368 -42 34 -79 65 -82 68 -18 19 -202 150 -235 167 -11 6 -33 7 -50
3z"/>
<path d="M3577 4194 c-1 -1 -36 -5 -77 -8 -77 -6 -177 -29 -191 -43 -12 -13
-71 -223 -104 -373 -2 -8 -6 -26 -9 -40 -11 -49 -42 -239 -51 -320 -23 -208
-24 -491 -1 -660 2 -14 7 -52 11 -85 9 -73 7 -63 40 -210 28 -124 73 -267 132
-420 41 -108 179 -386 222 -450 17 -25 31 -48 31 -51 0 -16 222 -336 285 -411
5 -7 15 -18 20 -25 165 -210 470 -522 676 -690 171 -139 182 -147 192 -148 32
-1 379 627 442 800 1 3 9 21 17 40 51 115 174 476 203 597 37 154 61 272 75
374 6 41 13 86 15 100 11 57 20 226 19 384 0 305 -28 501 -109 772 -51 169
-178 481 -202 496 -4 3 -26 8 -48 11 -100 16 -255 59 -625 174 -322 100 -468
138 -600 157 -24 4 -47 8 -50 10 -14 8 -304 27 -313 19z"/>
</g>
</svg>
